<svg fill="none" height="75" viewBox="0 0 131 75" width="131" xmlns="http://www.w3.org/2000/svg" xmlns:xlink="http://www.w3.org/1999/xlink"><clipPath id="a"><path d="m0 0h131v75h-131z"/></clipPath><g clip-path="url(#a)"><path clip-rule="evenodd" d="m5.37086 44.7028c4.68634-4.6863 12.22874-4.6863 27.31374-4.6863h51.9917c3.7249 0 5.5874 0 7.1361-.3087 6.3419-1.2641 11.2996-6.2215 12.5636-12.5634.309-1.5487.309-3.4112.309-7.1361 0-3.725 0-5.5874.308-7.1361 1.264-6.34191 6.222-11.29933 12.564-12.563495 1.548-.30870473 3.411-.308705 7.136-.308705h5.992l-129.999408.00019693-.001022 74.99990307v-2.9834c0-15.085.000003-22.6276 4.68629-27.3139z" fill="#fffefc" fill-rule="evenodd"/></g></svg>